<svg xmlns="http://www.w3.org/2000/svg" version="1.1" xmlns:xlink="http://www.w3.org/1999/xlink" xmlns:svgjs="http://svgjs.com/svgjs" width="720" height="2000" preserveAspectRatio="none" viewBox="0 0 720 2000"><g mask="url(&quot;#SvgjsMask1326&quot;)" fill="none"><rect width="720" height="2000" x="0" y="0" fill="url(#SvgjsLinearGradient1327)"></rect><path d="M146.59 119.45L249.65 178.95L249.65 297.95L146.59 357.45L43.53 297.95L43.53 178.95zM43.53 1011.95L146.59 1071.45L146.59 1190.45L43.53 1249.95L-59.53 1190.45L-59.53 1071.45zM146.59 1190.45L249.65 1249.95L249.65 1368.95L146.59 1428.45L43.53 1368.95L43.53 1249.95zM43.53 1368.95L146.59 1428.45L146.59 1547.45L43.53 1606.95L-59.53 1547.45L-59.53 1428.45zM146.59 1547.45L249.65 1606.95L249.65 1725.95L146.59 1785.45L43.53 1725.95L43.53 1606.95zM43.53 1725.95L146.59 1785.45L146.59 1904.45L43.53 1963.95L-59.53 1904.45L-59.53 1785.45zM146.59 1904.45L249.65 1963.95L249.65 2082.95L146.59 2142.45L43.53 2082.95L43.53 1963.95zM249.65 -59.05L352.71 0.45L352.71 119.45L249.65 178.95L146.59 119.45L146.59 0.45zM352.71 119.45L455.77 178.95L455.77 297.95L352.71 357.45L249.65 297.95L249.65 178.95zM249.65 297.95L352.71 357.45L352.71 476.45L249.65 535.95L146.59 476.45L146.59 357.45zM352.71 476.45L455.77 535.95L455.77 654.95L352.71 714.45L249.65 654.95L249.65 535.95zM249.65 1011.95L352.71 1071.45L352.71 1190.45L249.65 1249.95L146.59 1190.45L146.59 1071.45zM249.65 1368.95L352.71 1428.45L352.71 1547.45L249.65 1606.95L146.59 1547.45L146.59 1428.45zM455.77 297.95L558.83 357.45L558.83 476.45L455.77 535.95L352.71 476.45L352.71 357.45zM558.83 833.45L661.89 892.95L661.89 1011.95L558.83 1071.45L455.77 1011.95L455.77 892.95zM455.77 1011.95L558.83 1071.45L558.83 1190.45L455.77 1249.95L352.71 1190.45L352.71 1071.45zM558.83 1190.45L661.89 1249.95L661.89 1368.95L558.83 1428.45L455.77 1368.95L455.77 1249.95zM558.83 1547.45L661.89 1606.95L661.89 1725.95L558.83 1785.45L455.77 1725.95L455.77 1606.95zM558.83 1904.45L661.89 1963.95L661.89 2082.95L558.83 2142.45L455.77 2082.95L455.77 1963.95zM661.89 -59.05L764.95 0.45L764.95 119.45L661.89 178.95L558.83 119.45L558.83 0.45zM661.89 297.95L764.95 357.45L764.95 476.45L661.89 535.95L558.83 476.45L558.83 357.45zM764.95 476.45L868.01 535.95L868.01 654.95L764.95 714.45L661.89 654.95L661.89 535.95zM661.89 1011.95L764.95 1071.45L764.95 1190.45L661.89 1249.95L558.83 1190.45L558.83 1071.45zM764.95 1190.45L868.01 1249.95L868.01 1368.95L764.95 1428.45L661.89 1368.95L661.89 1249.95zM661.89 1368.95L764.95 1428.45L764.95 1547.45L661.89 1606.95L558.83 1547.45L558.83 1428.45zM764.95 1547.45L868.01 1606.95L868.01 1725.95L764.95 1785.45L661.89 1725.95L661.89 1606.95z" stroke="#03305d" stroke-width="2"></path><path d="M33.15 -80.42L109.36 -36.42L109.36 51.58L33.15 95.58L-43.06 51.58L-43.06 -36.42zM109.36 51.58L185.57 95.58L185.57 183.58L109.36 227.58L33.15 183.58L33.15 95.58zM33.15 447.58L109.36 491.58L109.36 579.58L33.15 623.58L-43.06 579.58L-43.06 491.58zM33.15 711.58L109.36 755.58L109.36 843.58L33.15 887.58L-43.06 843.58L-43.06 755.58zM33.15 975.58L109.36 1019.58L109.36 1107.58L33.15 1151.58L-43.06 1107.58L-43.06 1019.58zM109.36 1899.58L185.57 1943.58L185.57 2031.58L109.36 2075.58L33.15 2031.58L33.15 1943.58zM261.79 315.58L338 359.58L338 447.58L261.79 491.58L185.57 447.58L185.57 359.58zM185.57 711.58L261.79 755.58L261.79 843.58L185.57 887.58L109.36 843.58L109.36 755.58zM261.79 843.58L338 887.58L338 975.58L261.79 1019.58L185.57 975.58L185.57 887.58zM185.57 975.58L261.79 1019.58L261.79 1107.58L185.57 1151.58L109.36 1107.58L109.36 1019.58zM261.79 1107.58L338 1151.58L338 1239.58L261.79 1283.58L185.57 1239.58L185.57 1151.58zM185.57 1239.58L261.79 1283.58L261.79 1371.58L185.57 1415.58L109.36 1371.58L109.36 1283.58zM261.79 1371.58L338 1415.58L338 1503.58L261.79 1547.58L185.57 1503.58L185.57 1415.58zM185.57 1503.58L261.79 1547.58L261.79 1635.58L185.57 1679.58L109.36 1635.58L109.36 1547.58zM261.79 1899.58L338 1943.58L338 2031.58L261.79 2075.58L185.57 2031.58L185.57 1943.58zM414.21 315.58L490.42 359.58L490.42 447.58L414.21 491.58L338 447.58L338 359.58zM414.21 1635.58L490.42 1679.58L490.42 1767.58L414.21 1811.58L338 1767.58L338 1679.58zM338 1767.58L414.21 1811.58L414.21 1899.58L338 1943.58L261.79 1899.58L261.79 1811.58zM490.42 -80.42L566.64 -36.42L566.64 51.58L490.42 95.58L414.21 51.58L414.21 -36.42zM566.64 51.58L642.85 95.58L642.85 183.58L566.64 227.58L490.42 183.58L490.42 95.58zM490.42 711.58L566.64 755.58L566.64 843.58L490.42 887.58L414.21 843.58L414.21 755.58zM566.64 843.58L642.85 887.58L642.85 975.58L566.64 1019.58L490.42 975.58L490.42 887.58zM566.64 1371.58L642.85 1415.58L642.85 1503.58L566.64 1547.58L490.42 1503.58L490.42 1415.58zM566.64 1635.58L642.85 1679.58L642.85 1767.58L566.64 1811.58L490.42 1767.58L490.42 1679.58zM490.42 1767.58L566.64 1811.58L566.64 1899.58L490.42 1943.58L414.21 1899.58L414.21 1811.58zM566.64 1899.58L642.85 1943.58L642.85 2031.58L566.64 2075.58L490.42 2031.58L490.42 1943.58zM719.06 579.58L795.27 623.58L795.27 711.58L719.06 755.58L642.85 711.58L642.85 623.58zM719.06 843.58L795.27 887.58L795.27 975.58L719.06 1019.58L642.85 975.58L642.85 887.58zM642.85 1239.58L719.06 1283.58L719.06 1371.58L642.85 1415.58L566.64 1371.58L566.64 1283.58zM719.06 1371.58L795.27 1415.58L795.27 1503.58L719.06 1547.58L642.85 1503.58L642.85 1415.58z" stroke="rgba(6, 80, 156, 0.93)" stroke-width="2"></path><path d="M24.35 -80.42 a8.8 8.8 0 1 0 17.6 0 a8.8 8.8 0 1 0 -17.6 0zM100.56 -36.42 a8.8 8.8 0 1 0 17.6 0 a8.8 8.8 0 1 0 -17.6 0zM100.56 51.58 a8.8 8.8 0 1 0 17.6 0 a8.8 8.8 0 1 0 -17.6 0zM24.35 95.58 a8.8 8.8 0 1 0 17.6 0 a8.8 8.8 0 1 0 -17.6 0zM-51.86 51.58 a8.8 8.8 0 1 0 17.6 0 a8.8 8.8 0 1 0 -17.6 0zM-51.86 -36.42 a8.8 8.8 0 1 0 17.6 0 a8.8 8.8 0 1 0 -17.6 0zM176.77 95.58 a8.8 8.8 0 1 0 17.6 0 a8.8 8.8 0 1 0 -17.6 0zM176.77 183.58 a8.8 8.8 0 1 0 17.6 0 a8.8 8.8 0 1 0 -17.6 0zM100.56 227.58 a8.8 8.8 0 1 0 17.6 0 a8.8 8.8 0 1 0 -17.6 0zM24.35 183.58 a8.8 8.8 0 1 0 17.6 0 a8.8 8.8 0 1 0 -17.6 0zM24.35 447.58 a8.8 8.8 0 1 0 17.6 0 a8.8 8.8 0 1 0 -17.6 0zM100.56 491.58 a8.8 8.8 0 1 0 17.6 0 a8.8 8.8 0 1 0 -17.6 0zM100.56 579.58 a8.8 8.8 0 1 0 17.6 0 a8.8 8.8 0 1 0 -17.6 0zM24.35 623.58 a8.8 8.8 0 1 0 17.6 0 a8.8 8.8 0 1 0 -17.6 0zM-51.86 579.58 a8.8 8.8 0 1 0 17.6 0 a8.8 8.8 0 1 0 -17.6 0zM-51.86 491.58 a8.8 8.8 0 1 0 17.6 0 a8.8 8.8 0 1 0 -17.6 0zM24.35 711.58 a8.8 8.8 0 1 0 17.6 0 a8.8 8.8 0 1 0 -17.6 0zM100.56 755.58 a8.8 8.8 0 1 0 17.6 0 a8.8 8.8 0 1 0 -17.6 0zM100.56 843.58 a8.8 8.8 0 1 0 17.6 0 a8.8 8.8 0 1 0 -17.6 0zM24.35 887.58 a8.8 8.8 0 1 0 17.6 0 a8.8 8.8 0 1 0 -17.6 0zM-51.86 843.58 a8.8 8.8 0 1 0 17.6 0 a8.8 8.8 0 1 0 -17.6 0zM-51.86 755.58 a8.8 8.8 0 1 0 17.6 0 a8.8 8.8 0 1 0 -17.6 0zM24.35 975.58 a8.8 8.8 0 1 0 17.6 0 a8.8 8.8 0 1 0 -17.6 0zM100.56 1019.58 a8.8 8.8 0 1 0 17.6 0 a8.8 8.8 0 1 0 -17.6 0zM100.56 1107.58 a8.8 8.8 0 1 0 17.6 0 a8.8 8.8 0 1 0 -17.6 0zM24.35 1151.58 a8.8 8.8 0 1 0 17.6 0 a8.8 8.8 0 1 0 -17.6 0zM-51.86 1107.58 a8.8 8.8 0 1 0 17.6 0 a8.8 8.8 0 1 0 -17.6 0zM-51.86 1019.58 a8.8 8.8 0 1 0 17.6 0 a8.8 8.8 0 1 0 -17.6 0zM100.56 1899.58 a8.8 8.8 0 1 0 17.6 0 a8.8 8.8 0 1 0 -17.6 0zM176.77 1943.58 a8.8 8.8 0 1 0 17.6 0 a8.8 8.8 0 1 0 -17.6 0zM176.77 2031.58 a8.8 8.8 0 1 0 17.6 0 a8.8 8.8 0 1 0 -17.6 0zM100.56 2075.58 a8.8 8.8 0 1 0 17.6 0 a8.8 8.8 0 1 0 -17.6 0zM24.35 2031.58 a8.8 8.8 0 1 0 17.6 0 a8.8 8.8 0 1 0 -17.6 0zM24.35 1943.58 a8.8 8.8 0 1 0 17.6 0 a8.8 8.8 0 1 0 -17.6 0zM252.99 315.58 a8.8 8.8 0 1 0 17.6 0 a8.8 8.8 0 1 0 -17.6 0zM329.2 359.58 a8.8 8.8 0 1 0 17.6 0 a8.8 8.8 0 1 0 -17.6 0zM329.2 447.58 a8.8 8.8 0 1 0 17.6 0 a8.8 8.8 0 1 0 -17.6 0zM252.99 491.58 a8.8 8.8 0 1 0 17.6 0 a8.8 8.8 0 1 0 -17.6 0zM176.77 447.58 a8.8 8.8 0 1 0 17.6 0 a8.8 8.8 0 1 0 -17.6 0zM176.77 359.58 a8.8 8.8 0 1 0 17.6 0 a8.8 8.8 0 1 0 -17.6 0zM176.77 711.58 a8.8 8.8 0 1 0 17.6 0 a8.8 8.8 0 1 0 -17.6 0zM252.99 755.58 a8.8 8.8 0 1 0 17.6 0 a8.8 8.8 0 1 0 -17.6 0zM252.99 843.58 a8.8 8.8 0 1 0 17.6 0 a8.8 8.8 0 1 0 -17.6 0zM176.77 887.58 a8.8 8.8 0 1 0 17.6 0 a8.8 8.8 0 1 0 -17.6 0zM329.2 887.58 a8.8 8.8 0 1 0 17.6 0 a8.8 8.8 0 1 0 -17.6 0zM329.2 975.58 a8.8 8.8 0 1 0 17.6 0 a8.8 8.8 0 1 0 -17.6 0zM252.99 1019.58 a8.8 8.8 0 1 0 17.6 0 a8.8 8.8 0 1 0 -17.6 0zM176.77 975.58 a8.8 8.8 0 1 0 17.6 0 a8.8 8.8 0 1 0 -17.6 0zM252.99 1107.58 a8.8 8.8 0 1 0 17.6 0 a8.8 8.8 0 1 0 -17.6 0zM176.77 1151.58 a8.8 8.8 0 1 0 17.6 0 a8.8 8.8 0 1 0 -17.6 0zM329.2 1151.58 a8.8 8.8 0 1 0 17.6 0 a8.8 8.8 0 1 0 -17.6 0zM329.2 1239.58 a8.8 8.8 0 1 0 17.6 0 a8.8 8.8 0 1 0 -17.6 0zM252.99 1283.58 a8.8 8.8 0 1 0 17.6 0 a8.8 8.8 0 1 0 -17.6 0zM176.77 1239.58 a8.8 8.8 0 1 0 17.6 0 a8.8 8.8 0 1 0 -17.6 0zM252.99 1371.58 a8.8 8.8 0 1 0 17.6 0 a8.8 8.8 0 1 0 -17.6 0zM176.77 1415.58 a8.8 8.8 0 1 0 17.6 0 a8.8 8.8 0 1 0 -17.6 0zM100.56 1371.58 a8.8 8.8 0 1 0 17.6 0 a8.8 8.8 0 1 0 -17.6 0zM100.56 1283.58 a8.8 8.8 0 1 0 17.6 0 a8.8 8.8 0 1 0 -17.6 0zM329.2 1415.58 a8.8 8.8 0 1 0 17.6 0 a8.8 8.8 0 1 0 -17.6 0zM329.2 1503.58 a8.8 8.8 0 1 0 17.6 0 a8.8 8.8 0 1 0 -17.6 0zM252.99 1547.58 a8.8 8.8 0 1 0 17.6 0 a8.8 8.8 0 1 0 -17.6 0zM176.77 1503.58 a8.8 8.8 0 1 0 17.6 0 a8.8 8.8 0 1 0 -17.6 0zM252.99 1635.58 a8.8 8.8 0 1 0 17.6 0 a8.8 8.8 0 1 0 -17.6 0zM176.77 1679.58 a8.8 8.8 0 1 0 17.6 0 a8.8 8.8 0 1 0 -17.6 0zM100.56 1635.58 a8.8 8.8 0 1 0 17.6 0 a8.8 8.8 0 1 0 -17.6 0zM100.56 1547.58 a8.8 8.8 0 1 0 17.6 0 a8.8 8.8 0 1 0 -17.6 0zM252.99 1899.58 a8.8 8.8 0 1 0 17.6 0 a8.8 8.8 0 1 0 -17.6 0zM329.2 1943.58 a8.8 8.8 0 1 0 17.6 0 a8.8 8.8 0 1 0 -17.6 0zM329.2 2031.58 a8.8 8.8 0 1 0 17.6 0 a8.8 8.8 0 1 0 -17.6 0zM252.99 2075.58 a8.8 8.8 0 1 0 17.6 0 a8.8 8.8 0 1 0 -17.6 0zM405.41 315.58 a8.8 8.8 0 1 0 17.6 0 a8.8 8.8 0 1 0 -17.6 0zM481.62 359.58 a8.8 8.8 0 1 0 17.6 0 a8.8 8.8 0 1 0 -17.6 0zM481.62 447.58 a8.8 8.8 0 1 0 17.6 0 a8.8 8.8 0 1 0 -17.6 0zM405.41 491.58 a8.8 8.8 0 1 0 17.6 0 a8.8 8.8 0 1 0 -17.6 0zM405.41 1635.58 a8.8 8.8 0 1 0 17.6 0 a8.8 8.8 0 1 0 -17.6 0zM481.62 1679.58 a8.8 8.8 0 1 0 17.6 0 a8.8 8.8 0 1 0 -17.6 0zM481.62 1767.58 a8.8 8.8 0 1 0 17.6 0 a8.8 8.8 0 1 0 -17.6 0zM405.41 1811.58 a8.8 8.8 0 1 0 17.6 0 a8.8 8.8 0 1 0 -17.6 0zM329.2 1767.58 a8.8 8.8 0 1 0 17.6 0 a8.8 8.8 0 1 0 -17.6 0zM329.2 1679.58 a8.8 8.8 0 1 0 17.6 0 a8.8 8.8 0 1 0 -17.6 0zM405.41 1899.58 a8.8 8.8 0 1 0 17.6 0 a8.8 8.8 0 1 0 -17.6 0zM252.99 1811.58 a8.8 8.8 0 1 0 17.6 0 a8.8 8.8 0 1 0 -17.6 0zM481.62 -80.42 a8.8 8.8 0 1 0 17.6 0 a8.8 8.8 0 1 0 -17.6 0zM557.84 -36.42 a8.8 8.8 0 1 0 17.6 0 a8.8 8.8 0 1 0 -17.6 0zM557.84 51.58 a8.8 8.8 0 1 0 17.6 0 a8.8 8.8 0 1 0 -17.6 0zM481.62 95.58 a8.8 8.8 0 1 0 17.6 0 a8.8 8.8 0 1 0 -17.6 0zM405.41 51.58 a8.8 8.8 0 1 0 17.6 0 a8.8 8.8 0 1 0 -17.6 0zM405.41 -36.42 a8.8 8.8 0 1 0 17.6 0 a8.8 8.8 0 1 0 -17.6 0zM634.05 95.58 a8.8 8.8 0 1 0 17.6 0 a8.8 8.8 0 1 0 -17.6 0zM634.05 183.58 a8.8 8.8 0 1 0 17.6 0 a8.8 8.8 0 1 0 -17.6 0zM557.84 227.58 a8.8 8.8 0 1 0 17.6 0 a8.8 8.8 0 1 0 -17.6 0zM481.62 183.58 a8.8 8.8 0 1 0 17.6 0 a8.8 8.8 0 1 0 -17.6 0zM481.62 711.58 a8.8 8.8 0 1 0 17.6 0 a8.8 8.8 0 1 0 -17.6 0zM557.84 755.58 a8.8 8.8 0 1 0 17.6 0 a8.8 8.8 0 1 0 -17.6 0zM557.84 843.58 a8.8 8.8 0 1 0 17.6 0 a8.8 8.8 0 1 0 -17.6 0zM481.62 887.58 a8.8 8.8 0 1 0 17.6 0 a8.8 8.8 0 1 0 -17.6 0zM405.41 843.58 a8.8 8.8 0 1 0 17.6 0 a8.8 8.8 0 1 0 -17.6 0zM405.41 755.58 a8.8 8.8 0 1 0 17.6 0 a8.8 8.8 0 1 0 -17.6 0zM634.05 887.58 a8.8 8.8 0 1 0 17.6 0 a8.8 8.8 0 1 0 -17.6 0zM634.05 975.58 a8.8 8.8 0 1 0 17.6 0 a8.8 8.8 0 1 0 -17.6 0zM557.84 1019.58 a8.8 8.8 0 1 0 17.6 0 a8.8 8.8 0 1 0 -17.6 0zM481.62 975.58 a8.8 8.8 0 1 0 17.6 0 a8.8 8.8 0 1 0 -17.6 0zM557.84 1371.58 a8.8 8.8 0 1 0 17.6 0 a8.8 8.8 0 1 0 -17.6 0zM634.05 1415.58 a8.8 8.8 0 1 0 17.6 0 a8.8 8.8 0 1 0 -17.6 0zM634.05 1503.58 a8.8 8.8 0 1 0 17.6 0 a8.8 8.8 0 1 0 -17.6 0zM557.84 1547.58 a8.8 8.8 0 1 0 17.6 0 a8.8 8.8 0 1 0 -17.6 0zM481.62 1503.58 a8.8 8.8 0 1 0 17.6 0 a8.8 8.8 0 1 0 -17.6 0zM481.62 1415.58 a8.8 8.8 0 1 0 17.6 0 a8.8 8.8 0 1 0 -17.6 0zM557.84 1635.58 a8.8 8.8 0 1 0 17.6 0 a8.8 8.8 0 1 0 -17.6 0zM634.05 1679.58 a8.8 8.8 0 1 0 17.6 0 a8.8 8.8 0 1 0 -17.6 0zM634.05 1767.58 a8.8 8.8 0 1 0 17.6 0 a8.8 8.8 0 1 0 -17.6 0zM557.84 1811.58 a8.8 8.8 0 1 0 17.6 0 a8.8 8.8 0 1 0 -17.6 0zM557.84 1899.58 a8.8 8.8 0 1 0 17.6 0 a8.8 8.8 0 1 0 -17.6 0zM481.62 1943.58 a8.8 8.8 0 1 0 17.6 0 a8.8 8.8 0 1 0 -17.6 0zM634.05 1943.58 a8.8 8.8 0 1 0 17.6 0 a8.8 8.8 0 1 0 -17.6 0zM634.05 2031.58 a8.8 8.8 0 1 0 17.6 0 a8.8 8.8 0 1 0 -17.6 0zM557.84 2075.58 a8.8 8.8 0 1 0 17.6 0 a8.8 8.8 0 1 0 -17.6 0zM481.62 2031.58 a8.8 8.8 0 1 0 17.6 0 a8.8 8.8 0 1 0 -17.6 0zM710.26 579.58 a8.8 8.8 0 1 0 17.6 0 a8.8 8.8 0 1 0 -17.6 0zM786.47 623.58 a8.8 8.8 0 1 0 17.6 0 a8.8 8.8 0 1 0 -17.6 0zM786.47 711.58 a8.8 8.8 0 1 0 17.6 0 a8.8 8.8 0 1 0 -17.6 0zM710.26 755.58 a8.8 8.8 0 1 0 17.6 0 a8.8 8.8 0 1 0 -17.6 0zM634.05 711.58 a8.8 8.8 0 1 0 17.6 0 a8.8 8.8 0 1 0 -17.6 0zM634.05 623.58 a8.8 8.8 0 1 0 17.6 0 a8.8 8.8 0 1 0 -17.6 0zM710.26 843.58 a8.8 8.8 0 1 0 17.6 0 a8.8 8.8 0 1 0 -17.6 0zM786.47 887.58 a8.8 8.8 0 1 0 17.6 0 a8.8 8.8 0 1 0 -17.6 0zM786.47 975.58 a8.8 8.8 0 1 0 17.6 0 a8.8 8.8 0 1 0 -17.6 0zM710.26 1019.58 a8.8 8.8 0 1 0 17.6 0 a8.8 8.8 0 1 0 -17.6 0zM634.05 1239.58 a8.8 8.8 0 1 0 17.6 0 a8.8 8.8 0 1 0 -17.6 0zM710.26 1283.58 a8.8 8.8 0 1 0 17.6 0 a8.8 8.8 0 1 0 -17.6 0zM710.26 1371.58 a8.8 8.8 0 1 0 17.6 0 a8.8 8.8 0 1 0 -17.6 0zM557.84 1283.58 a8.8 8.8 0 1 0 17.6 0 a8.8 8.8 0 1 0 -17.6 0zM786.47 1415.58 a8.8 8.8 0 1 0 17.6 0 a8.8 8.8 0 1 0 -17.6 0zM786.47 1503.58 a8.8 8.8 0 1 0 17.6 0 a8.8 8.8 0 1 0 -17.6 0zM710.26 1547.58 a8.8 8.8 0 1 0 17.6 0 a8.8 8.8 0 1 0 -17.6 0z" fill="rgba(6, 80, 156, 0.93)"></path></g><defs><mask id="SvgjsMask1326"><rect width="720" height="2000" fill="#ffffff"></rect></mask><linearGradient x1="-44.44%" y1="16%" x2="144.44%" y2="84%" gradientUnits="userSpaceOnUse" id="SvgjsLinearGradient1327"><stop stop-color="#0e2a47" offset="0"></stop><stop stop-color="rgba(19, 63, 119, 1)" offset="1"></stop></linearGradient></defs></svg>