<svg xmlns="http://www.w3.org/2000/svg" version="1.1" xmlns:xlink="http://www.w3.org/1999/xlink" xmlns:svgjs="http://svgjs.com/svgjs" width="720" height="2500" preserveAspectRatio="none" viewBox="0 0 720 2500"><g mask="url(&quot;#SvgjsMask1022&quot;)" fill="none"><rect width="720" height="2500" x="0" y="0" fill="url(#SvgjsLinearGradient1023)"></rect><path d="M131.62 434.7L234.68 494.2L234.68 613.2L131.62 672.7L28.56 613.2L28.56 494.2zM131.62 791.7L234.68 851.2L234.68 970.2L131.62 1029.7L28.56 970.2L28.56 851.2zM28.56 970.2L131.62 1029.7L131.62 1148.7L28.56 1208.2L-74.5 1148.7L-74.5 1029.7zM131.62 1148.7L234.68 1208.2L234.68 1327.2L131.62 1386.7L28.56 1327.2L28.56 1208.2zM28.56 1327.2L131.62 1386.7L131.62 1505.7L28.56 1565.2L-74.5 1505.7L-74.5 1386.7zM28.56 1684.2L131.62 1743.7L131.62 1862.7L28.56 1922.2L-74.5 1862.7L-74.5 1743.7zM131.62 1862.7L234.68 1922.2L234.68 2041.2L131.62 2100.7L28.56 2041.2L28.56 1922.2zM131.62 2219.7L234.68 2279.2L234.68 2398.2L131.62 2457.7L28.56 2398.2L28.56 2279.2zM337.74 77.7L440.8 137.2L440.8 256.2L337.74 315.7L234.68 256.2L234.68 137.2zM234.68 256.2L337.74 315.7L337.74 434.7L234.68 494.2L131.62 434.7L131.62 315.7zM337.74 434.7L440.8 494.2L440.8 613.2L337.74 672.7L234.68 613.2L234.68 494.2zM234.68 613.2L337.74 672.7L337.74 791.7L234.68 851.2L131.62 791.7L131.62 672.7zM234.68 970.2L337.74 1029.7L337.74 1148.7L234.68 1208.2L131.62 1148.7L131.62 1029.7zM234.68 1327.2L337.74 1386.7L337.74 1505.7L234.68 1565.2L131.62 1505.7L131.62 1386.7zM234.68 1684.2L337.74 1743.7L337.74 1862.7L234.68 1922.2L131.62 1862.7L131.62 1743.7zM234.68 2041.2L337.74 2100.7L337.74 2219.7L234.68 2279.2L131.62 2219.7L131.62 2100.7zM337.74 2219.7L440.8 2279.2L440.8 2398.2L337.74 2457.7L234.68 2398.2L234.68 2279.2zM234.68 2398.2L337.74 2457.7L337.74 2576.7L234.68 2636.2L131.62 2576.7L131.62 2457.7zM543.86 77.7L646.92 137.2L646.92 256.2L543.86 315.7L440.8 256.2L440.8 137.2zM440.8 256.2L543.86 315.7L543.86 434.7L440.8 494.2L337.74 434.7L337.74 315.7zM543.86 791.7L646.92 851.2L646.92 970.2L543.86 1029.7L440.8 970.2L440.8 851.2zM440.8 1684.2L543.86 1743.7L543.86 1862.7L440.8 1922.2L337.74 1862.7L337.74 1743.7zM543.86 2219.7L646.92 2279.2L646.92 2398.2L543.86 2457.7L440.8 2398.2L440.8 2279.2zM440.8 2398.2L543.86 2457.7L543.86 2576.7L440.8 2636.2L337.74 2576.7L337.74 2457.7zM646.92 -100.8L749.98 -41.3L749.98 77.7L646.92 137.2L543.86 77.7L543.86 -41.3zM749.98 434.7L853.04 494.2L853.04 613.2L749.98 672.7L646.92 613.2L646.92 494.2zM646.92 613.2L749.98 672.7L749.98 791.7L646.92 851.2L543.86 791.7L543.86 672.7zM646.92 970.2L749.98 1029.7L749.98 1148.7L646.92 1208.2L543.86 1148.7L543.86 1029.7zM646.92 1684.2L749.98 1743.7L749.98 1862.7L646.92 1922.2L543.86 1862.7L543.86 1743.7zM749.98 1862.7L853.04 1922.2L853.04 2041.2L749.98 2100.7L646.92 2041.2L646.92 1922.2zM749.98 2219.7L853.04 2279.2L853.04 2398.2L749.98 2457.7L646.92 2398.2L646.92 2279.2zM646.92 2398.2L749.98 2457.7L749.98 2576.7L646.92 2636.2L543.86 2576.7L543.86 2457.7z" stroke="rgba(28, 18, 85, 1)" stroke-width="2"></path><path d="M69.15 -60.09L145.36 -16.09L145.36 71.91L69.15 115.91L-7.06 71.91L-7.06 -16.09zM145.36 599.91L221.57 643.91L221.57 731.91L145.36 775.91L69.15 731.91L69.15 643.91zM69.15 731.91L145.36 775.91L145.36 863.91L69.15 907.91L-7.06 863.91L-7.06 775.91zM69.15 1523.91L145.36 1567.91L145.36 1655.91L69.15 1699.91L-7.06 1655.91L-7.06 1567.91zM145.36 1655.91L221.57 1699.91L221.57 1787.91L145.36 1831.91L69.15 1787.91L69.15 1699.91zM69.15 2051.91L145.36 2095.91L145.36 2183.91L69.15 2227.91L-7.06 2183.91L-7.06 2095.91zM221.57 467.91L297.79 511.91L297.79 599.91L221.57 643.91L145.36 599.91L145.36 511.91zM221.57 731.91L297.79 775.91L297.79 863.91L221.57 907.91L145.36 863.91L145.36 775.91zM297.79 863.91L374 907.91L374 995.91L297.79 1039.91L221.57 995.91L221.57 907.91zM297.79 1391.91L374 1435.91L374 1523.91L297.79 1567.91L221.57 1523.91L221.57 1435.91zM221.57 1523.91L297.79 1567.91L297.79 1655.91L221.57 1699.91L145.36 1655.91L145.36 1567.91zM297.79 1919.91L374 1963.91L374 2051.91L297.79 2095.91L221.57 2051.91L221.57 1963.91zM297.79 2447.91L374 2491.91L374 2579.91L297.79 2623.91L221.57 2579.91L221.57 2491.91zM374 467.91L450.21 511.91L450.21 599.91L374 643.91L297.79 599.91L297.79 511.91zM374 731.91L450.21 775.91L450.21 863.91L374 907.91L297.79 863.91L297.79 775.91zM450.21 863.91L526.42 907.91L526.42 995.91L450.21 1039.91L374 995.91L374 907.91zM374 995.91L450.21 1039.91L450.21 1127.91L374 1171.91L297.79 1127.91L297.79 1039.91zM374 1787.91L450.21 1831.91L450.21 1919.91L374 1963.91L297.79 1919.91L297.79 1831.91zM450.21 2183.91L526.42 2227.91L526.42 2315.91L450.21 2359.91L374 2315.91L374 2227.91zM374 2315.91L450.21 2359.91L450.21 2447.91L374 2491.91L297.79 2447.91L297.79 2359.91zM602.64 71.91L678.85 115.91L678.85 203.91L602.64 247.91L526.42 203.91L526.42 115.91zM602.64 335.91L678.85 379.91L678.85 467.91L602.64 511.91L526.42 467.91L526.42 379.91zM602.64 1919.91L678.85 1963.91L678.85 2051.91L602.64 2095.91L526.42 2051.91L526.42 1963.91zM526.42 2051.91L602.64 2095.91L602.64 2183.91L526.42 2227.91L450.21 2183.91L450.21 2095.91zM526.42 2315.91L602.64 2359.91L602.64 2447.91L526.42 2491.91L450.21 2447.91L450.21 2359.91zM678.85 731.91L755.06 775.91L755.06 863.91L678.85 907.91L602.64 863.91L602.64 775.91zM755.06 1127.91L831.27 1171.91L831.27 1259.91L755.06 1303.91L678.85 1259.91L678.85 1171.91zM678.85 1523.91L755.06 1567.91L755.06 1655.91L678.85 1699.91L602.64 1655.91L602.64 1567.91zM755.06 1919.91L831.27 1963.91L831.27 2051.91L755.06 2095.91L678.85 2051.91L678.85 1963.91zM678.85 2051.91L755.06 2095.91L755.06 2183.91L678.85 2227.91L602.64 2183.91L602.64 2095.91zM755.06 2183.91L831.27 2227.91L831.27 2315.91L755.06 2359.91L678.85 2315.91L678.85 2227.91zM678.85 2315.91L755.06 2359.91L755.06 2447.91L678.85 2491.91L602.64 2447.91L602.64 2359.91z" stroke="rgba(6, 80, 156, 0.93)" stroke-width="2"></path><path d="M60.35 -60.09 a8.8 8.8 0 1 0 17.6 0 a8.8 8.8 0 1 0 -17.6 0zM136.56 -16.09 a8.8 8.8 0 1 0 17.6 0 a8.8 8.8 0 1 0 -17.6 0zM136.56 71.91 a8.8 8.8 0 1 0 17.6 0 a8.8 8.8 0 1 0 -17.6 0zM60.35 115.91 a8.8 8.8 0 1 0 17.6 0 a8.8 8.8 0 1 0 -17.6 0zM-15.86 71.91 a8.8 8.8 0 1 0 17.6 0 a8.8 8.8 0 1 0 -17.6 0zM-15.86 -16.09 a8.8 8.8 0 1 0 17.6 0 a8.8 8.8 0 1 0 -17.6 0zM136.56 599.91 a8.8 8.8 0 1 0 17.6 0 a8.8 8.8 0 1 0 -17.6 0zM212.77 643.91 a8.8 8.8 0 1 0 17.6 0 a8.8 8.8 0 1 0 -17.6 0zM212.77 731.91 a8.8 8.8 0 1 0 17.6 0 a8.8 8.8 0 1 0 -17.6 0zM136.56 775.91 a8.8 8.8 0 1 0 17.6 0 a8.8 8.8 0 1 0 -17.6 0zM60.35 731.91 a8.8 8.8 0 1 0 17.6 0 a8.8 8.8 0 1 0 -17.6 0zM60.35 643.91 a8.8 8.8 0 1 0 17.6 0 a8.8 8.8 0 1 0 -17.6 0zM136.56 863.91 a8.8 8.8 0 1 0 17.6 0 a8.8 8.8 0 1 0 -17.6 0zM60.35 907.91 a8.8 8.8 0 1 0 17.6 0 a8.8 8.8 0 1 0 -17.6 0zM-15.86 863.91 a8.8 8.8 0 1 0 17.6 0 a8.8 8.8 0 1 0 -17.6 0zM-15.86 775.91 a8.8 8.8 0 1 0 17.6 0 a8.8 8.8 0 1 0 -17.6 0zM60.35 1523.91 a8.8 8.8 0 1 0 17.6 0 a8.8 8.8 0 1 0 -17.6 0zM136.56 1567.91 a8.8 8.8 0 1 0 17.6 0 a8.8 8.8 0 1 0 -17.6 0zM136.56 1655.91 a8.8 8.8 0 1 0 17.6 0 a8.8 8.8 0 1 0 -17.6 0zM60.35 1699.91 a8.8 8.8 0 1 0 17.6 0 a8.8 8.8 0 1 0 -17.6 0zM-15.86 1655.91 a8.8 8.8 0 1 0 17.6 0 a8.8 8.8 0 1 0 -17.6 0zM-15.86 1567.91 a8.8 8.8 0 1 0 17.6 0 a8.8 8.8 0 1 0 -17.6 0zM212.77 1699.91 a8.8 8.8 0 1 0 17.6 0 a8.8 8.8 0 1 0 -17.6 0zM212.77 1787.91 a8.8 8.8 0 1 0 17.6 0 a8.8 8.8 0 1 0 -17.6 0zM136.56 1831.91 a8.8 8.8 0 1 0 17.6 0 a8.8 8.8 0 1 0 -17.6 0zM60.35 1787.91 a8.8 8.8 0 1 0 17.6 0 a8.8 8.8 0 1 0 -17.6 0zM60.35 2051.91 a8.8 8.8 0 1 0 17.6 0 a8.8 8.8 0 1 0 -17.6 0zM136.56 2095.91 a8.8 8.8 0 1 0 17.6 0 a8.8 8.8 0 1 0 -17.6 0zM136.56 2183.91 a8.8 8.8 0 1 0 17.6 0 a8.8 8.8 0 1 0 -17.6 0zM60.35 2227.91 a8.8 8.8 0 1 0 17.6 0 a8.8 8.8 0 1 0 -17.6 0zM-15.86 2183.91 a8.8 8.8 0 1 0 17.6 0 a8.8 8.8 0 1 0 -17.6 0zM-15.86 2095.91 a8.8 8.8 0 1 0 17.6 0 a8.8 8.8 0 1 0 -17.6 0zM212.77 467.91 a8.8 8.8 0 1 0 17.6 0 a8.8 8.8 0 1 0 -17.6 0zM288.99 511.91 a8.8 8.8 0 1 0 17.6 0 a8.8 8.8 0 1 0 -17.6 0zM288.99 599.91 a8.8 8.8 0 1 0 17.6 0 a8.8 8.8 0 1 0 -17.6 0zM136.56 511.91 a8.8 8.8 0 1 0 17.6 0 a8.8 8.8 0 1 0 -17.6 0zM288.99 775.91 a8.8 8.8 0 1 0 17.6 0 a8.8 8.8 0 1 0 -17.6 0zM288.99 863.91 a8.8 8.8 0 1 0 17.6 0 a8.8 8.8 0 1 0 -17.6 0zM212.77 907.91 a8.8 8.8 0 1 0 17.6 0 a8.8 8.8 0 1 0 -17.6 0zM365.2 907.91 a8.8 8.8 0 1 0 17.6 0 a8.8 8.8 0 1 0 -17.6 0zM365.2 995.91 a8.8 8.8 0 1 0 17.6 0 a8.8 8.8 0 1 0 -17.6 0zM288.99 1039.91 a8.8 8.8 0 1 0 17.6 0 a8.8 8.8 0 1 0 -17.6 0zM212.77 995.91 a8.8 8.8 0 1 0 17.6 0 a8.8 8.8 0 1 0 -17.6 0zM288.99 1391.91 a8.8 8.8 0 1 0 17.6 0 a8.8 8.8 0 1 0 -17.6 0zM365.2 1435.91 a8.8 8.8 0 1 0 17.6 0 a8.8 8.8 0 1 0 -17.6 0zM365.2 1523.91 a8.8 8.8 0 1 0 17.6 0 a8.8 8.8 0 1 0 -17.6 0zM288.99 1567.91 a8.8 8.8 0 1 0 17.6 0 a8.8 8.8 0 1 0 -17.6 0zM212.77 1523.91 a8.8 8.8 0 1 0 17.6 0 a8.8 8.8 0 1 0 -17.6 0zM212.77 1435.91 a8.8 8.8 0 1 0 17.6 0 a8.8 8.8 0 1 0 -17.6 0zM288.99 1655.91 a8.8 8.8 0 1 0 17.6 0 a8.8 8.8 0 1 0 -17.6 0zM288.99 1919.91 a8.8 8.8 0 1 0 17.6 0 a8.8 8.8 0 1 0 -17.6 0zM365.2 1963.91 a8.8 8.8 0 1 0 17.6 0 a8.8 8.8 0 1 0 -17.6 0zM365.2 2051.91 a8.8 8.8 0 1 0 17.6 0 a8.8 8.8 0 1 0 -17.6 0zM288.99 2095.91 a8.8 8.8 0 1 0 17.6 0 a8.8 8.8 0 1 0 -17.6 0zM212.77 2051.91 a8.8 8.8 0 1 0 17.6 0 a8.8 8.8 0 1 0 -17.6 0zM212.77 1963.91 a8.8 8.8 0 1 0 17.6 0 a8.8 8.8 0 1 0 -17.6 0zM288.99 2447.91 a8.8 8.8 0 1 0 17.6 0 a8.8 8.8 0 1 0 -17.6 0zM365.2 2491.91 a8.8 8.8 0 1 0 17.6 0 a8.8 8.8 0 1 0 -17.6 0zM365.2 2579.91 a8.8 8.8 0 1 0 17.6 0 a8.8 8.8 0 1 0 -17.6 0zM288.99 2623.91 a8.8 8.8 0 1 0 17.6 0 a8.8 8.8 0 1 0 -17.6 0zM212.77 2579.91 a8.8 8.8 0 1 0 17.6 0 a8.8 8.8 0 1 0 -17.6 0zM212.77 2491.91 a8.8 8.8 0 1 0 17.6 0 a8.8 8.8 0 1 0 -17.6 0zM365.2 467.91 a8.8 8.8 0 1 0 17.6 0 a8.8 8.8 0 1 0 -17.6 0zM441.41 511.91 a8.8 8.8 0 1 0 17.6 0 a8.8 8.8 0 1 0 -17.6 0zM441.41 599.91 a8.8 8.8 0 1 0 17.6 0 a8.8 8.8 0 1 0 -17.6 0zM365.2 643.91 a8.8 8.8 0 1 0 17.6 0 a8.8 8.8 0 1 0 -17.6 0zM365.2 731.91 a8.8 8.8 0 1 0 17.6 0 a8.8 8.8 0 1 0 -17.6 0zM441.41 775.91 a8.8 8.8 0 1 0 17.6 0 a8.8 8.8 0 1 0 -17.6 0zM441.41 863.91 a8.8 8.8 0 1 0 17.6 0 a8.8 8.8 0 1 0 -17.6 0zM517.62 907.91 a8.8 8.8 0 1 0 17.6 0 a8.8 8.8 0 1 0 -17.6 0zM517.62 995.91 a8.8 8.8 0 1 0 17.6 0 a8.8 8.8 0 1 0 -17.6 0zM441.41 1039.91 a8.8 8.8 0 1 0 17.6 0 a8.8 8.8 0 1 0 -17.6 0zM441.41 1127.91 a8.8 8.8 0 1 0 17.6 0 a8.8 8.8 0 1 0 -17.6 0zM365.2 1171.91 a8.8 8.8 0 1 0 17.6 0 a8.8 8.8 0 1 0 -17.6 0zM288.99 1127.91 a8.8 8.8 0 1 0 17.6 0 a8.8 8.8 0 1 0 -17.6 0zM365.2 1787.91 a8.8 8.8 0 1 0 17.6 0 a8.8 8.8 0 1 0 -17.6 0zM441.41 1831.91 a8.8 8.8 0 1 0 17.6 0 a8.8 8.8 0 1 0 -17.6 0zM441.41 1919.91 a8.8 8.8 0 1 0 17.6 0 a8.8 8.8 0 1 0 -17.6 0zM288.99 1831.91 a8.8 8.8 0 1 0 17.6 0 a8.8 8.8 0 1 0 -17.6 0zM441.41 2183.91 a8.8 8.8 0 1 0 17.6 0 a8.8 8.8 0 1 0 -17.6 0zM517.62 2227.91 a8.8 8.8 0 1 0 17.6 0 a8.8 8.8 0 1 0 -17.6 0zM517.62 2315.91 a8.8 8.8 0 1 0 17.6 0 a8.8 8.8 0 1 0 -17.6 0zM441.41 2359.91 a8.8 8.8 0 1 0 17.6 0 a8.8 8.8 0 1 0 -17.6 0zM365.2 2315.91 a8.8 8.8 0 1 0 17.6 0 a8.8 8.8 0 1 0 -17.6 0zM365.2 2227.91 a8.8 8.8 0 1 0 17.6 0 a8.8 8.8 0 1 0 -17.6 0zM441.41 2447.91 a8.8 8.8 0 1 0 17.6 0 a8.8 8.8 0 1 0 -17.6 0zM288.99 2359.91 a8.8 8.8 0 1 0 17.6 0 a8.8 8.8 0 1 0 -17.6 0zM593.84 71.91 a8.8 8.8 0 1 0 17.6 0 a8.8 8.8 0 1 0 -17.6 0zM670.05 115.91 a8.8 8.8 0 1 0 17.6 0 a8.8 8.8 0 1 0 -17.6 0zM670.05 203.91 a8.8 8.8 0 1 0 17.6 0 a8.8 8.8 0 1 0 -17.6 0zM593.84 247.91 a8.8 8.8 0 1 0 17.6 0 a8.8 8.8 0 1 0 -17.6 0zM517.62 203.91 a8.8 8.8 0 1 0 17.6 0 a8.8 8.8 0 1 0 -17.6 0zM517.62 115.91 a8.8 8.8 0 1 0 17.6 0 a8.8 8.8 0 1 0 -17.6 0zM593.84 335.91 a8.8 8.8 0 1 0 17.6 0 a8.8 8.8 0 1 0 -17.6 0zM670.05 379.91 a8.8 8.8 0 1 0 17.6 0 a8.8 8.8 0 1 0 -17.6 0zM670.05 467.91 a8.8 8.8 0 1 0 17.6 0 a8.8 8.8 0 1 0 -17.6 0zM593.84 511.91 a8.8 8.8 0 1 0 17.6 0 a8.8 8.8 0 1 0 -17.6 0zM517.62 467.91 a8.8 8.8 0 1 0 17.6 0 a8.8 8.8 0 1 0 -17.6 0zM517.62 379.91 a8.8 8.8 0 1 0 17.6 0 a8.8 8.8 0 1 0 -17.6 0zM593.84 1919.91 a8.8 8.8 0 1 0 17.6 0 a8.8 8.8 0 1 0 -17.6 0zM670.05 1963.91 a8.8 8.8 0 1 0 17.6 0 a8.8 8.8 0 1 0 -17.6 0zM670.05 2051.91 a8.8 8.8 0 1 0 17.6 0 a8.8 8.8 0 1 0 -17.6 0zM593.84 2095.91 a8.8 8.8 0 1 0 17.6 0 a8.8 8.8 0 1 0 -17.6 0zM517.62 2051.91 a8.8 8.8 0 1 0 17.6 0 a8.8 8.8 0 1 0 -17.6 0zM517.62 1963.91 a8.8 8.8 0 1 0 17.6 0 a8.8 8.8 0 1 0 -17.6 0zM593.84 2183.91 a8.8 8.8 0 1 0 17.6 0 a8.8 8.8 0 1 0 -17.6 0zM441.41 2095.91 a8.8 8.8 0 1 0 17.6 0 a8.8 8.8 0 1 0 -17.6 0zM593.84 2359.91 a8.8 8.8 0 1 0 17.6 0 a8.8 8.8 0 1 0 -17.6 0zM593.84 2447.91 a8.8 8.8 0 1 0 17.6 0 a8.8 8.8 0 1 0 -17.6 0zM517.62 2491.91 a8.8 8.8 0 1 0 17.6 0 a8.8 8.8 0 1 0 -17.6 0zM670.05 731.91 a8.8 8.8 0 1 0 17.6 0 a8.8 8.8 0 1 0 -17.6 0zM746.26 775.91 a8.8 8.8 0 1 0 17.6 0 a8.8 8.8 0 1 0 -17.6 0zM746.26 863.91 a8.8 8.8 0 1 0 17.6 0 a8.8 8.8 0 1 0 -17.6 0zM670.05 907.91 a8.8 8.8 0 1 0 17.6 0 a8.8 8.8 0 1 0 -17.6 0zM593.84 863.91 a8.8 8.8 0 1 0 17.6 0 a8.8 8.8 0 1 0 -17.6 0zM593.84 775.91 a8.8 8.8 0 1 0 17.6 0 a8.8 8.8 0 1 0 -17.6 0zM746.26 1127.91 a8.8 8.8 0 1 0 17.6 0 a8.8 8.8 0 1 0 -17.6 0zM822.47 1171.91 a8.8 8.8 0 1 0 17.6 0 a8.8 8.8 0 1 0 -17.6 0zM822.47 1259.91 a8.8 8.8 0 1 0 17.6 0 a8.8 8.8 0 1 0 -17.6 0zM746.26 1303.91 a8.8 8.8 0 1 0 17.6 0 a8.8 8.8 0 1 0 -17.6 0zM670.05 1259.91 a8.8 8.8 0 1 0 17.6 0 a8.8 8.8 0 1 0 -17.6 0zM670.05 1171.91 a8.8 8.8 0 1 0 17.6 0 a8.8 8.8 0 1 0 -17.6 0zM670.05 1523.91 a8.8 8.8 0 1 0 17.6 0 a8.8 8.8 0 1 0 -17.6 0zM746.26 1567.91 a8.8 8.8 0 1 0 17.6 0 a8.8 8.8 0 1 0 -17.6 0zM746.26 1655.91 a8.8 8.8 0 1 0 17.6 0 a8.8 8.8 0 1 0 -17.6 0zM670.05 1699.91 a8.8 8.8 0 1 0 17.6 0 a8.8 8.8 0 1 0 -17.6 0zM593.84 1655.91 a8.8 8.8 0 1 0 17.6 0 a8.8 8.8 0 1 0 -17.6 0zM593.84 1567.91 a8.8 8.8 0 1 0 17.6 0 a8.8 8.8 0 1 0 -17.6 0zM746.26 1919.91 a8.8 8.8 0 1 0 17.6 0 a8.8 8.8 0 1 0 -17.6 0zM822.47 1963.91 a8.8 8.8 0 1 0 17.6 0 a8.8 8.8 0 1 0 -17.6 0zM822.47 2051.91 a8.8 8.8 0 1 0 17.6 0 a8.8 8.8 0 1 0 -17.6 0zM746.26 2095.91 a8.8 8.8 0 1 0 17.6 0 a8.8 8.8 0 1 0 -17.6 0zM746.26 2183.91 a8.8 8.8 0 1 0 17.6 0 a8.8 8.8 0 1 0 -17.6 0zM670.05 2227.91 a8.8 8.8 0 1 0 17.6 0 a8.8 8.8 0 1 0 -17.6 0zM822.47 2227.91 a8.8 8.8 0 1 0 17.6 0 a8.8 8.8 0 1 0 -17.6 0zM822.47 2315.91 a8.8 8.8 0 1 0 17.6 0 a8.8 8.8 0 1 0 -17.6 0zM746.26 2359.91 a8.8 8.8 0 1 0 17.6 0 a8.8 8.8 0 1 0 -17.6 0zM670.05 2315.91 a8.8 8.8 0 1 0 17.6 0 a8.8 8.8 0 1 0 -17.6 0zM746.26 2447.91 a8.8 8.8 0 1 0 17.6 0 a8.8 8.8 0 1 0 -17.6 0zM670.05 2491.91 a8.8 8.8 0 1 0 17.6 0 a8.8 8.8 0 1 0 -17.6 0z" fill="rgba(6, 80, 156, 0.93)"></path></g><defs><mask id="SvgjsMask1022"><rect width="720" height="2500" fill="#ffffff"></rect></mask><linearGradient x1="-61.81%" y1="17.8%" x2="161.81%" y2="82.2%" gradientUnits="userSpaceOnUse" id="SvgjsLinearGradient1023"><stop stop-color="#0e2a47" offset="0"></stop><stop stop-color="rgba(19, 63, 119, 1)" offset="1"></stop></linearGradient></defs></svg>