<svg xmlns="http://www.w3.org/2000/svg" version="1.1" xmlns:xlink="http://www.w3.org/1999/xlink" xmlns:svgjs="http://svgjs.com/svgjs" width="720" height="3500" preserveAspectRatio="none" viewBox="0 0 720 3500"><g mask="url(&quot;#SvgjsMask1022&quot;)" fill="none"><rect width="720" height="3500" x="0" y="0" fill="url(#SvgjsLinearGradient1023)"></rect><path d="M16.29 342.21L119.35 401.71L119.35 520.71L16.29 580.21L-86.77 520.71L-86.77 401.71zM119.35 520.71L222.41 580.21L222.41 699.21L119.35 758.71L16.29 699.21L16.29 580.21zM16.29 1056.21L119.35 1115.71L119.35 1234.71L16.29 1294.21L-86.77 1234.71L-86.77 1115.71zM119.35 1234.71L222.41 1294.21L222.41 1413.21L119.35 1472.71L16.29 1413.21L16.29 1294.21zM119.35 1948.71L222.41 2008.21L222.41 2127.21L119.35 2186.71L16.29 2127.21L16.29 2008.21zM119.35 2662.71L222.41 2722.21L222.41 2841.21L119.35 2900.71L16.29 2841.21L16.29 2722.21zM222.41 -14.79L325.47 44.71L325.47 163.71L222.41 223.21L119.35 163.71L119.35 44.71zM325.47 163.71L428.53 223.21L428.53 342.21L325.47 401.71L222.41 342.21L222.41 223.21zM222.41 1056.21L325.47 1115.71L325.47 1234.71L222.41 1294.21L119.35 1234.71L119.35 1115.71zM222.41 1770.21L325.47 1829.71L325.47 1948.71L222.41 2008.21L119.35 1948.71L119.35 1829.71zM222.41 3198.21L325.47 3257.71L325.47 3376.71L222.41 3436.21L119.35 3376.71L119.35 3257.71zM428.53 342.21L531.59 401.71L531.59 520.71L428.53 580.21L325.47 520.71L325.47 401.71zM531.59 877.71L634.65 937.21L634.65 1056.21L531.59 1115.71L428.53 1056.21L428.53 937.21zM428.53 1770.21L531.59 1829.71L531.59 1948.71L428.53 2008.21L325.47 1948.71L325.47 1829.71zM428.53 2127.21L531.59 2186.71L531.59 2305.71L428.53 2365.21L325.47 2305.71L325.47 2186.71zM428.53 2484.21L531.59 2543.71L531.59 2662.71L428.53 2722.21L325.47 2662.71L325.47 2543.71zM531.59 3019.71L634.65 3079.21L634.65 3198.21L531.59 3257.71L428.53 3198.21L428.53 3079.21zM428.53 3198.21L531.59 3257.71L531.59 3376.71L428.53 3436.21L325.47 3376.71L325.47 3257.71zM634.65 -14.79L737.71 44.71L737.71 163.71L634.65 223.21L531.59 163.71L531.59 44.71zM737.71 520.71L840.77 580.21L840.77 699.21L737.71 758.71L634.65 699.21L634.65 580.21zM737.71 877.71L840.77 937.21L840.77 1056.21L737.71 1115.71L634.65 1056.21L634.65 937.21zM737.71 1234.71L840.77 1294.21L840.77 1413.21L737.71 1472.71L634.65 1413.21L634.65 1294.21zM737.71 1591.71L840.77 1651.21L840.77 1770.21L737.71 1829.71L634.65 1770.21L634.65 1651.21zM634.65 3555.21L737.71 3614.71L737.71 3733.71L634.65 3793.21L531.59 3733.71L531.59 3614.71z" stroke="rgba(28, 18, 85, 1)" stroke-width="2"></path><path d="M156.91 1172.2L233.12 1216.2L233.12 1304.2L156.91 1348.2L80.7 1304.2L80.7 1216.2zM80.7 1304.2L156.91 1348.2L156.91 1436.2L80.7 1480.2L4.49 1436.2L4.49 1348.2zM156.91 2492.2L233.12 2536.2L233.12 2624.2L156.91 2668.2L80.7 2624.2L80.7 2536.2zM80.7 2624.2L156.91 2668.2L156.91 2756.2L80.7 2800.2L4.49 2756.2L4.49 2668.2zM156.91 2756.2L233.12 2800.2L233.12 2888.2L156.91 2932.2L80.7 2888.2L80.7 2800.2zM156.91 3548.2L233.12 3592.2L233.12 3680.2L156.91 3724.2L80.7 3680.2L80.7 3592.2zM309.34 116.2L385.55 160.2L385.55 248.2L309.34 292.2L233.12 248.2L233.12 160.2zM309.34 644.2L385.55 688.2L385.55 776.2L309.34 820.2L233.12 776.2L233.12 688.2zM309.34 908.2L385.55 952.2L385.55 1040.2L309.34 1084.2L233.12 1040.2L233.12 952.2zM233.12 1040.2L309.34 1084.2L309.34 1172.2L233.12 1216.2L156.91 1172.2L156.91 1084.2zM309.34 1436.2L385.55 1480.2L385.55 1568.2L309.34 1612.2L233.12 1568.2L233.12 1480.2zM233.12 2096.2L309.34 2140.2L309.34 2228.2L233.12 2272.2L156.91 2228.2L156.91 2140.2zM233.12 3416.2L309.34 3460.2L309.34 3548.2L233.12 3592.2L156.91 3548.2L156.91 3460.2zM309.34 3548.2L385.55 3592.2L385.55 3680.2L309.34 3724.2L233.12 3680.2L233.12 3592.2zM385.55 -15.8L461.76 28.2L461.76 116.2L385.55 160.2L309.34 116.2L309.34 28.2zM385.55 248.2L461.76 292.2L461.76 380.2L385.55 424.2L309.34 380.2L309.34 292.2zM461.76 1172.2L537.97 1216.2L537.97 1304.2L461.76 1348.2L385.55 1304.2L385.55 1216.2zM461.76 1436.2L537.97 1480.2L537.97 1568.2L461.76 1612.2L385.55 1568.2L385.55 1480.2zM461.76 2228.2L537.97 2272.2L537.97 2360.2L461.76 2404.2L385.55 2360.2L385.55 2272.2zM385.55 2888.2L461.76 2932.2L461.76 3020.2L385.55 3064.2L309.34 3020.2L309.34 2932.2zM461.76 3284.2L537.97 3328.2L537.97 3416.2L461.76 3460.2L385.55 3416.2L385.55 3328.2zM385.55 3416.2L461.76 3460.2L461.76 3548.2L385.55 3592.2L309.34 3548.2L309.34 3460.2zM614.19 1436.2L690.4 1480.2L690.4 1568.2L614.19 1612.2L537.97 1568.2L537.97 1480.2zM614.19 1964.2L690.4 2008.2L690.4 2096.2L614.19 2140.2L537.97 2096.2L537.97 2008.2zM614.19 2492.2L690.4 2536.2L690.4 2624.2L614.19 2668.2L537.97 2624.2L537.97 2536.2zM537.97 2624.2L614.19 2668.2L614.19 2756.2L537.97 2800.2L461.76 2756.2L461.76 2668.2zM614.19 3020.2L690.4 3064.2L690.4 3152.2L614.19 3196.2L537.97 3152.2L537.97 3064.2zM690.4 -15.8L766.61 28.2L766.61 116.2L690.4 160.2L614.19 116.2L614.19 28.2zM690.4 512.2L766.61 556.2L766.61 644.2L690.4 688.2L614.19 644.2L614.19 556.2zM690.4 1568.2L766.61 1612.2L766.61 1700.2L690.4 1744.2L614.19 1700.2L614.19 1612.2zM766.61 3548.2L842.82 3592.2L842.82 3680.2L766.61 3724.2L690.4 3680.2L690.4 3592.2z" stroke="rgba(6, 80, 156, 0.93)" stroke-width="2"></path><path d="M148.11 1172.2 a8.8 8.8 0 1 0 17.6 0 a8.8 8.8 0 1 0 -17.6 0zM224.32 1216.2 a8.8 8.8 0 1 0 17.6 0 a8.8 8.8 0 1 0 -17.6 0zM224.32 1304.2 a8.8 8.8 0 1 0 17.6 0 a8.8 8.8 0 1 0 -17.6 0zM148.11 1348.2 a8.8 8.8 0 1 0 17.6 0 a8.8 8.8 0 1 0 -17.6 0zM71.9 1304.2 a8.8 8.8 0 1 0 17.6 0 a8.8 8.8 0 1 0 -17.6 0zM71.9 1216.2 a8.8 8.8 0 1 0 17.6 0 a8.8 8.8 0 1 0 -17.6 0zM148.11 1436.2 a8.8 8.8 0 1 0 17.6 0 a8.8 8.8 0 1 0 -17.6 0zM71.9 1480.2 a8.8 8.8 0 1 0 17.6 0 a8.8 8.8 0 1 0 -17.6 0zM-4.31 1436.2 a8.8 8.8 0 1 0 17.6 0 a8.8 8.8 0 1 0 -17.6 0zM-4.31 1348.2 a8.8 8.8 0 1 0 17.6 0 a8.8 8.8 0 1 0 -17.6 0zM148.11 2492.2 a8.8 8.8 0 1 0 17.6 0 a8.8 8.8 0 1 0 -17.6 0zM224.32 2536.2 a8.8 8.8 0 1 0 17.6 0 a8.8 8.8 0 1 0 -17.6 0zM224.32 2624.2 a8.8 8.8 0 1 0 17.6 0 a8.8 8.8 0 1 0 -17.6 0zM148.11 2668.2 a8.8 8.8 0 1 0 17.6 0 a8.8 8.8 0 1 0 -17.6 0zM71.9 2624.2 a8.8 8.8 0 1 0 17.6 0 a8.8 8.8 0 1 0 -17.6 0zM71.9 2536.2 a8.8 8.8 0 1 0 17.6 0 a8.8 8.8 0 1 0 -17.6 0zM148.11 2756.2 a8.8 8.8 0 1 0 17.6 0 a8.8 8.8 0 1 0 -17.6 0zM71.9 2800.2 a8.8 8.8 0 1 0 17.6 0 a8.8 8.8 0 1 0 -17.6 0zM-4.31 2756.2 a8.8 8.8 0 1 0 17.6 0 a8.8 8.8 0 1 0 -17.6 0zM-4.31 2668.2 a8.8 8.8 0 1 0 17.6 0 a8.8 8.8 0 1 0 -17.6 0zM224.32 2800.2 a8.8 8.8 0 1 0 17.6 0 a8.8 8.8 0 1 0 -17.6 0zM224.32 2888.2 a8.8 8.8 0 1 0 17.6 0 a8.8 8.8 0 1 0 -17.6 0zM148.11 2932.2 a8.8 8.8 0 1 0 17.6 0 a8.8 8.8 0 1 0 -17.6 0zM71.9 2888.2 a8.8 8.8 0 1 0 17.6 0 a8.8 8.8 0 1 0 -17.6 0zM148.11 3548.2 a8.8 8.8 0 1 0 17.6 0 a8.8 8.8 0 1 0 -17.6 0zM224.32 3592.2 a8.8 8.8 0 1 0 17.6 0 a8.8 8.8 0 1 0 -17.6 0zM224.32 3680.2 a8.8 8.8 0 1 0 17.6 0 a8.8 8.8 0 1 0 -17.6 0zM148.11 3724.2 a8.8 8.8 0 1 0 17.6 0 a8.8 8.8 0 1 0 -17.6 0zM71.9 3680.2 a8.8 8.8 0 1 0 17.6 0 a8.8 8.8 0 1 0 -17.6 0zM71.9 3592.2 a8.8 8.8 0 1 0 17.6 0 a8.8 8.8 0 1 0 -17.6 0zM300.54 116.2 a8.8 8.8 0 1 0 17.6 0 a8.8 8.8 0 1 0 -17.6 0zM376.75 160.2 a8.8 8.8 0 1 0 17.6 0 a8.8 8.8 0 1 0 -17.6 0zM376.75 248.2 a8.8 8.8 0 1 0 17.6 0 a8.8 8.8 0 1 0 -17.6 0zM300.54 292.2 a8.8 8.8 0 1 0 17.6 0 a8.8 8.8 0 1 0 -17.6 0zM224.32 248.2 a8.8 8.8 0 1 0 17.6 0 a8.8 8.8 0 1 0 -17.6 0zM224.32 160.2 a8.8 8.8 0 1 0 17.6 0 a8.8 8.8 0 1 0 -17.6 0zM300.54 644.2 a8.8 8.8 0 1 0 17.6 0 a8.8 8.8 0 1 0 -17.6 0zM376.75 688.2 a8.8 8.8 0 1 0 17.6 0 a8.8 8.8 0 1 0 -17.6 0zM376.75 776.2 a8.8 8.8 0 1 0 17.6 0 a8.8 8.8 0 1 0 -17.6 0zM300.54 820.2 a8.8 8.8 0 1 0 17.6 0 a8.8 8.8 0 1 0 -17.6 0zM224.32 776.2 a8.8 8.8 0 1 0 17.6 0 a8.8 8.8 0 1 0 -17.6 0zM224.32 688.2 a8.8 8.8 0 1 0 17.6 0 a8.8 8.8 0 1 0 -17.6 0zM300.54 908.2 a8.8 8.8 0 1 0 17.6 0 a8.8 8.8 0 1 0 -17.6 0zM376.75 952.2 a8.8 8.8 0 1 0 17.6 0 a8.8 8.8 0 1 0 -17.6 0zM376.75 1040.2 a8.8 8.8 0 1 0 17.6 0 a8.8 8.8 0 1 0 -17.6 0zM300.54 1084.2 a8.8 8.8 0 1 0 17.6 0 a8.8 8.8 0 1 0 -17.6 0zM224.32 1040.2 a8.8 8.8 0 1 0 17.6 0 a8.8 8.8 0 1 0 -17.6 0zM224.32 952.2 a8.8 8.8 0 1 0 17.6 0 a8.8 8.8 0 1 0 -17.6 0zM300.54 1172.2 a8.8 8.8 0 1 0 17.6 0 a8.8 8.8 0 1 0 -17.6 0zM148.11 1084.2 a8.8 8.8 0 1 0 17.6 0 a8.8 8.8 0 1 0 -17.6 0zM300.54 1436.2 a8.8 8.8 0 1 0 17.6 0 a8.8 8.8 0 1 0 -17.6 0zM376.75 1480.2 a8.8 8.8 0 1 0 17.6 0 a8.8 8.8 0 1 0 -17.6 0zM376.75 1568.2 a8.8 8.8 0 1 0 17.6 0 a8.8 8.8 0 1 0 -17.6 0zM300.54 1612.2 a8.8 8.8 0 1 0 17.6 0 a8.8 8.8 0 1 0 -17.6 0zM224.32 1568.2 a8.8 8.8 0 1 0 17.6 0 a8.8 8.8 0 1 0 -17.6 0zM224.32 1480.2 a8.8 8.8 0 1 0 17.6 0 a8.8 8.8 0 1 0 -17.6 0zM224.32 2096.2 a8.8 8.8 0 1 0 17.6 0 a8.8 8.8 0 1 0 -17.6 0zM300.54 2140.2 a8.8 8.8 0 1 0 17.6 0 a8.8 8.8 0 1 0 -17.6 0zM300.54 2228.2 a8.8 8.8 0 1 0 17.6 0 a8.8 8.8 0 1 0 -17.6 0zM224.32 2272.2 a8.8 8.8 0 1 0 17.6 0 a8.8 8.8 0 1 0 -17.6 0zM148.11 2228.2 a8.8 8.8 0 1 0 17.6 0 a8.8 8.8 0 1 0 -17.6 0zM148.11 2140.2 a8.8 8.8 0 1 0 17.6 0 a8.8 8.8 0 1 0 -17.6 0zM224.32 3416.2 a8.8 8.8 0 1 0 17.6 0 a8.8 8.8 0 1 0 -17.6 0zM300.54 3460.2 a8.8 8.8 0 1 0 17.6 0 a8.8 8.8 0 1 0 -17.6 0zM300.54 3548.2 a8.8 8.8 0 1 0 17.6 0 a8.8 8.8 0 1 0 -17.6 0zM148.11 3460.2 a8.8 8.8 0 1 0 17.6 0 a8.8 8.8 0 1 0 -17.6 0zM376.75 3592.2 a8.8 8.8 0 1 0 17.6 0 a8.8 8.8 0 1 0 -17.6 0zM376.75 3680.2 a8.8 8.8 0 1 0 17.6 0 a8.8 8.8 0 1 0 -17.6 0zM300.54 3724.2 a8.8 8.8 0 1 0 17.6 0 a8.8 8.8 0 1 0 -17.6 0zM376.75 -15.8 a8.8 8.8 0 1 0 17.6 0 a8.8 8.8 0 1 0 -17.6 0zM452.96 28.2 a8.8 8.8 0 1 0 17.6 0 a8.8 8.8 0 1 0 -17.6 0zM452.96 116.2 a8.8 8.8 0 1 0 17.6 0 a8.8 8.8 0 1 0 -17.6 0zM300.54 28.2 a8.8 8.8 0 1 0 17.6 0 a8.8 8.8 0 1 0 -17.6 0zM452.96 292.2 a8.8 8.8 0 1 0 17.6 0 a8.8 8.8 0 1 0 -17.6 0zM452.96 380.2 a8.8 8.8 0 1 0 17.6 0 a8.8 8.8 0 1 0 -17.6 0zM376.75 424.2 a8.8 8.8 0 1 0 17.6 0 a8.8 8.8 0 1 0 -17.6 0zM300.54 380.2 a8.8 8.8 0 1 0 17.6 0 a8.8 8.8 0 1 0 -17.6 0zM452.96 1172.2 a8.8 8.8 0 1 0 17.6 0 a8.8 8.8 0 1 0 -17.6 0zM529.17 1216.2 a8.8 8.8 0 1 0 17.6 0 a8.8 8.8 0 1 0 -17.6 0zM529.17 1304.2 a8.8 8.8 0 1 0 17.6 0 a8.8 8.8 0 1 0 -17.6 0zM452.96 1348.2 a8.8 8.8 0 1 0 17.6 0 a8.8 8.8 0 1 0 -17.6 0zM376.75 1304.2 a8.8 8.8 0 1 0 17.6 0 a8.8 8.8 0 1 0 -17.6 0zM376.75 1216.2 a8.8 8.8 0 1 0 17.6 0 a8.8 8.8 0 1 0 -17.6 0zM452.96 1436.2 a8.8 8.8 0 1 0 17.6 0 a8.8 8.8 0 1 0 -17.6 0zM529.17 1480.2 a8.8 8.8 0 1 0 17.6 0 a8.8 8.8 0 1 0 -17.6 0zM529.17 1568.2 a8.8 8.8 0 1 0 17.6 0 a8.8 8.8 0 1 0 -17.6 0zM452.96 1612.2 a8.8 8.8 0 1 0 17.6 0 a8.8 8.8 0 1 0 -17.6 0zM452.96 2228.2 a8.8 8.8 0 1 0 17.6 0 a8.8 8.8 0 1 0 -17.6 0zM529.17 2272.2 a8.8 8.8 0 1 0 17.6 0 a8.8 8.8 0 1 0 -17.6 0zM529.17 2360.2 a8.8 8.8 0 1 0 17.6 0 a8.8 8.8 0 1 0 -17.6 0zM452.96 2404.2 a8.8 8.8 0 1 0 17.6 0 a8.8 8.8 0 1 0 -17.6 0zM376.75 2360.2 a8.8 8.8 0 1 0 17.6 0 a8.8 8.8 0 1 0 -17.6 0zM376.75 2272.2 a8.8 8.8 0 1 0 17.6 0 a8.8 8.8 0 1 0 -17.6 0zM376.75 2888.2 a8.8 8.8 0 1 0 17.6 0 a8.8 8.8 0 1 0 -17.6 0zM452.96 2932.2 a8.8 8.8 0 1 0 17.6 0 a8.8 8.8 0 1 0 -17.6 0zM452.96 3020.2 a8.8 8.8 0 1 0 17.6 0 a8.8 8.8 0 1 0 -17.6 0zM376.75 3064.2 a8.8 8.8 0 1 0 17.6 0 a8.8 8.8 0 1 0 -17.6 0zM300.54 3020.2 a8.8 8.8 0 1 0 17.6 0 a8.8 8.8 0 1 0 -17.6 0zM300.54 2932.2 a8.8 8.8 0 1 0 17.6 0 a8.8 8.8 0 1 0 -17.6 0zM452.96 3284.2 a8.8 8.8 0 1 0 17.6 0 a8.8 8.8 0 1 0 -17.6 0zM529.17 3328.2 a8.8 8.8 0 1 0 17.6 0 a8.8 8.8 0 1 0 -17.6 0zM529.17 3416.2 a8.8 8.8 0 1 0 17.6 0 a8.8 8.8 0 1 0 -17.6 0zM452.96 3460.2 a8.8 8.8 0 1 0 17.6 0 a8.8 8.8 0 1 0 -17.6 0zM376.75 3416.2 a8.8 8.8 0 1 0 17.6 0 a8.8 8.8 0 1 0 -17.6 0zM376.75 3328.2 a8.8 8.8 0 1 0 17.6 0 a8.8 8.8 0 1 0 -17.6 0zM452.96 3548.2 a8.8 8.8 0 1 0 17.6 0 a8.8 8.8 0 1 0 -17.6 0zM605.39 1436.2 a8.8 8.8 0 1 0 17.6 0 a8.8 8.8 0 1 0 -17.6 0zM681.6 1480.2 a8.8 8.8 0 1 0 17.6 0 a8.8 8.8 0 1 0 -17.6 0zM681.6 1568.2 a8.8 8.8 0 1 0 17.6 0 a8.8 8.8 0 1 0 -17.6 0zM605.39 1612.2 a8.8 8.8 0 1 0 17.6 0 a8.8 8.8 0 1 0 -17.6 0zM605.39 1964.2 a8.8 8.8 0 1 0 17.6 0 a8.8 8.8 0 1 0 -17.6 0zM681.6 2008.2 a8.8 8.8 0 1 0 17.6 0 a8.8 8.8 0 1 0 -17.6 0zM681.6 2096.2 a8.8 8.8 0 1 0 17.6 0 a8.8 8.8 0 1 0 -17.6 0zM605.39 2140.2 a8.8 8.8 0 1 0 17.6 0 a8.8 8.8 0 1 0 -17.6 0zM529.17 2096.2 a8.8 8.8 0 1 0 17.6 0 a8.8 8.8 0 1 0 -17.6 0zM529.17 2008.2 a8.8 8.8 0 1 0 17.6 0 a8.8 8.8 0 1 0 -17.6 0zM605.39 2492.2 a8.8 8.8 0 1 0 17.6 0 a8.8 8.8 0 1 0 -17.6 0zM681.6 2536.2 a8.8 8.8 0 1 0 17.6 0 a8.8 8.8 0 1 0 -17.6 0zM681.6 2624.2 a8.8 8.8 0 1 0 17.6 0 a8.8 8.8 0 1 0 -17.6 0zM605.39 2668.2 a8.8 8.8 0 1 0 17.6 0 a8.8 8.8 0 1 0 -17.6 0zM529.17 2624.2 a8.8 8.8 0 1 0 17.6 0 a8.8 8.8 0 1 0 -17.6 0zM529.17 2536.2 a8.8 8.8 0 1 0 17.6 0 a8.8 8.8 0 1 0 -17.6 0zM605.39 2756.2 a8.8 8.8 0 1 0 17.6 0 a8.8 8.8 0 1 0 -17.6 0zM529.17 2800.2 a8.8 8.8 0 1 0 17.6 0 a8.8 8.8 0 1 0 -17.6 0zM452.96 2756.2 a8.8 8.8 0 1 0 17.6 0 a8.8 8.8 0 1 0 -17.6 0zM452.96 2668.2 a8.8 8.8 0 1 0 17.6 0 a8.8 8.8 0 1 0 -17.6 0zM605.39 3020.2 a8.8 8.8 0 1 0 17.6 0 a8.8 8.8 0 1 0 -17.6 0zM681.6 3064.2 a8.8 8.8 0 1 0 17.6 0 a8.8 8.8 0 1 0 -17.6 0zM681.6 3152.2 a8.8 8.8 0 1 0 17.6 0 a8.8 8.8 0 1 0 -17.6 0zM605.39 3196.2 a8.8 8.8 0 1 0 17.6 0 a8.8 8.8 0 1 0 -17.6 0zM529.17 3152.2 a8.8 8.8 0 1 0 17.6 0 a8.8 8.8 0 1 0 -17.6 0zM529.17 3064.2 a8.8 8.8 0 1 0 17.6 0 a8.8 8.8 0 1 0 -17.6 0zM681.6 -15.8 a8.8 8.8 0 1 0 17.6 0 a8.8 8.8 0 1 0 -17.6 0zM757.81 28.2 a8.8 8.8 0 1 0 17.6 0 a8.8 8.8 0 1 0 -17.6 0zM757.81 116.2 a8.8 8.8 0 1 0 17.6 0 a8.8 8.8 0 1 0 -17.6 0zM681.6 160.2 a8.8 8.8 0 1 0 17.6 0 a8.8 8.8 0 1 0 -17.6 0zM605.39 116.2 a8.8 8.8 0 1 0 17.6 0 a8.8 8.8 0 1 0 -17.6 0zM605.39 28.2 a8.8 8.8 0 1 0 17.6 0 a8.8 8.8 0 1 0 -17.6 0zM681.6 512.2 a8.8 8.8 0 1 0 17.6 0 a8.8 8.8 0 1 0 -17.6 0zM757.81 556.2 a8.8 8.8 0 1 0 17.6 0 a8.8 8.8 0 1 0 -17.6 0zM757.81 644.2 a8.8 8.8 0 1 0 17.6 0 a8.8 8.8 0 1 0 -17.6 0zM681.6 688.2 a8.8 8.8 0 1 0 17.6 0 a8.8 8.8 0 1 0 -17.6 0zM605.39 644.2 a8.8 8.8 0 1 0 17.6 0 a8.8 8.8 0 1 0 -17.6 0zM605.39 556.2 a8.8 8.8 0 1 0 17.6 0 a8.8 8.8 0 1 0 -17.6 0zM757.81 1612.2 a8.8 8.8 0 1 0 17.6 0 a8.8 8.8 0 1 0 -17.6 0zM757.81 1700.2 a8.8 8.8 0 1 0 17.6 0 a8.8 8.8 0 1 0 -17.6 0zM681.6 1744.2 a8.8 8.8 0 1 0 17.6 0 a8.8 8.8 0 1 0 -17.6 0zM605.39 1700.2 a8.8 8.8 0 1 0 17.6 0 a8.8 8.8 0 1 0 -17.6 0zM757.81 3548.2 a8.8 8.8 0 1 0 17.6 0 a8.8 8.8 0 1 0 -17.6 0zM834.02 3592.2 a8.8 8.8 0 1 0 17.6 0 a8.8 8.8 0 1 0 -17.6 0zM834.02 3680.2 a8.8 8.8 0 1 0 17.6 0 a8.8 8.8 0 1 0 -17.6 0zM757.81 3724.2 a8.8 8.8 0 1 0 17.6 0 a8.8 8.8 0 1 0 -17.6 0zM681.6 3680.2 a8.8 8.8 0 1 0 17.6 0 a8.8 8.8 0 1 0 -17.6 0zM681.6 3592.2 a8.8 8.8 0 1 0 17.6 0 a8.8 8.8 0 1 0 -17.6 0z" fill="rgba(6, 80, 156, 0.93)"></path></g><defs><mask id="SvgjsMask1022"><rect width="720" height="3500" fill="#ffffff"></rect></mask><linearGradient x1="-96.53%" y1="19.86%" x2="196.53%" y2="80.14%" gradientUnits="userSpaceOnUse" id="SvgjsLinearGradient1023"><stop stop-color="#0e2a47" offset="0"></stop><stop stop-color="rgba(19, 63, 119, 1)" offset="1"></stop></linearGradient></defs></svg>