<svg id="visual" viewBox="0 0 960 540" width="960" height="540" xmlns="http://www.w3.org/2000/svg" xmlns:xlink="http://www.w3.org/1999/xlink" version="1.1"><path d="M0 28L17.8 35.2C35.7 42.3 71.3 56.7 106.8 88.2C142.3 119.7 177.7 168.3 213.2 163C248.7 157.7 284.3 98.3 320 66C355.7 33.7 391.3 28.3 426.8 50.8C462.3 73.3 497.7 123.7 533.2 122.7C568.7 121.7 604.3 69.3 640 46.8C675.7 24.3 711.3 31.7 746.8 50.7C782.3 69.7 817.7 100.3 853.2 103C888.7 105.7 924.3 80.3 942.2 67.7L960 55L960 0L942.2 0C924.3 0 888.7 0 853.2 0C817.7 0 782.3 0 746.8 0C711.3 0 675.7 0 640 0C604.3 0 568.7 0 533.2 0C497.7 0 462.3 0 426.8 0C391.3 0 355.7 0 320 0C284.3 0 248.7 0 213.2 0C177.7 0 142.3 0 106.8 0C71.3 0 35.7 0 17.8 0L0 0Z" fill="#004cbb"></path><path d="M0 28L17.8 53.2C35.7 78.3 71.3 128.7 106.8 186.3C142.3 244 177.7 309 213.2 304.5C248.7 300 284.3 226 320 176.5C355.7 127 391.3 102 426.8 130C462.3 158 497.7 239 533.2 244.3C568.7 249.7 604.3 179.3 640 144.2C675.7 109 711.3 109 746.8 128.8C782.3 148.7 817.7 188.3 853.2 185.7C888.7 183 924.3 138 942.2 115.5L960 93L960 53L942.2 65.7C924.3 78.3 888.7 103.7 853.2 101C817.7 98.3 782.3 67.7 746.8 48.7C711.3 29.7 675.7 22.3 640 44.8C604.3 67.3 568.7 119.7 533.2 120.7C497.7 121.7 462.3 71.3 426.8 48.8C391.3 26.3 355.7 31.7 320 64C284.3 96.3 248.7 155.7 213.2 161C177.7 166.3 142.3 117.7 106.8 86.2C71.3 54.7 35.7 40.3 17.8 33.2L0 26Z" fill="#0058d9"></path><path d="M0 98L17.8 125C35.7 152 71.3 206 106.8 255.5C142.3 305 177.7 350 213.2 342C248.7 334 284.3 273 320 227.2C355.7 181.3 391.3 150.7 426.8 169.5C462.3 188.3 497.7 256.7 533.2 261.2C568.7 265.7 604.3 206.3 640 175.7C675.7 145 711.3 143 746.8 169C782.3 195 817.7 249 853.2 248.2C888.7 247.3 924.3 191.7 942.2 163.8L960 136L960 91L942.2 113.5C924.3 136 888.7 181 853.2 183.7C817.7 186.3 782.3 146.7 746.8 126.8C711.3 107 675.7 107 640 142.2C604.3 177.3 568.7 247.7 533.2 242.3C497.7 237 462.3 156 426.8 128C391.3 100 355.7 125 320 174.5C284.3 224 248.7 298 213.2 302.5C177.7 307 142.3 242 106.8 184.3C71.3 126.7 35.7 76.3 17.8 51.2L0 26Z" fill="#0064f9"></path><path d="M0 114L17.8 146.5C35.7 179 71.3 244 106.8 290.8C142.3 337.7 177.7 366.3 213.2 355.5C248.7 344.7 284.3 294.3 320 253.8C355.7 213.3 391.3 182.7 426.8 198C462.3 213.3 497.7 274.7 533.2 283.7C568.7 292.7 604.3 249.3 640 218.7C675.7 188 711.3 170 746.8 187.2C782.3 204.3 817.7 256.7 853.2 261.2C888.7 265.7 924.3 222.3 942.2 200.7L960 179L960 134L942.2 161.8C924.3 189.7 888.7 245.3 853.2 246.2C817.7 247 782.3 193 746.8 167C711.3 141 675.7 143 640 173.7C604.3 204.3 568.7 263.7 533.2 259.2C497.7 254.7 462.3 186.3 426.8 167.5C391.3 148.7 355.7 179.3 320 225.2C284.3 271 248.7 332 213.2 340C177.7 348 142.3 303 106.8 253.5C71.3 204 35.7 150 17.8 123L0 96Z" fill="#3079ff"></path><path d="M0 152L17.8 183.5C35.7 215 71.3 278 106.8 323C142.3 368 177.7 395 213.2 387C248.7 379 284.3 336 320 301.8C355.7 267.7 391.3 242.3 426.8 254C462.3 265.7 497.7 314.3 533.2 319.7C568.7 325 604.3 287 640 260.8C675.7 234.7 711.3 220.3 746.8 233.8C782.3 247.3 817.7 288.7 853.2 289.7C888.7 290.7 924.3 251.3 942.2 231.7L960 212L960 177L942.2 198.7C924.3 220.3 888.7 263.7 853.2 259.2C817.7 254.7 782.3 202.3 746.8 185.2C711.3 168 675.7 186 640 216.7C604.3 247.3 568.7 290.7 533.2 281.7C497.7 272.7 462.3 211.3 426.8 196C391.3 180.7 355.7 211.3 320 251.8C284.3 292.3 248.7 342.7 213.2 353.5C177.7 364.3 142.3 335.7 106.8 288.8C71.3 242 35.7 177 17.8 144.5L0 112Z" fill="#548fff"></path><path d="M0 201L17.8 227C35.7 253 71.3 305 106.8 341.8C142.3 378.7 177.7 400.3 213.2 396.8C248.7 393.3 284.3 364.7 320 335.8C355.7 307 391.3 278 426.8 286C462.3 294 497.7 339 533.2 344.5C568.7 350 604.3 316 640 293.5C675.7 271 711.3 260 746.8 270.8C782.3 281.7 817.7 314.3 853.2 310.8C888.7 307.3 924.3 267.7 942.2 247.8L960 228L960 210L942.2 229.7C924.3 249.3 888.7 288.7 853.2 287.7C817.7 286.7 782.3 245.3 746.8 231.8C711.3 218.3 675.7 232.7 640 258.8C604.3 285 568.7 323 533.2 317.7C497.7 312.3 462.3 263.7 426.8 252C391.3 240.3 355.7 265.7 320 299.8C284.3 334 248.7 377 213.2 385C177.7 393 142.3 366 106.8 321C71.3 276 35.7 213 17.8 181.5L0 150Z" fill="#6198ff"></path><path d="M0 249L17.8 268.8C35.7 288.7 71.3 328.3 106.8 362.7C142.3 397 177.7 426 213.2 426C248.7 426 284.3 397 320 369C355.7 341 391.3 314 426.8 316.7C462.3 319.3 497.7 351.7 533.2 358.8C568.7 366 604.3 348 640 330C675.7 312 711.3 294 746.8 304C782.3 314 817.7 352 853.2 350.3C888.7 348.7 924.3 307.3 942.2 286.7L960 266L960 226L942.2 245.8C924.3 265.7 888.7 305.3 853.2 308.8C817.7 312.3 782.3 279.7 746.8 268.8C711.3 258 675.7 269 640 291.5C604.3 314 568.7 348 533.2 342.5C497.7 337 462.3 292 426.8 284C391.3 276 355.7 305 320 333.8C284.3 362.7 248.7 391.3 213.2 394.8C177.7 398.3 142.3 376.7 106.8 339.8C71.3 303 35.7 251 17.8 225L0 199Z" fill="#6198ff"></path><path d="M0 271L17.8 290.8C35.7 310.7 71.3 350.3 106.8 383.7C142.3 417 177.7 444 213.2 442.2C248.7 440.3 284.3 409.7 320 385.3C355.7 361 391.3 343 426.8 348.3C462.3 353.7 497.7 382.3 533.2 384.2C568.7 386 604.3 361 640 344C675.7 327 711.3 318 746.8 327.8C782.3 337.7 817.7 366.3 853.2 366.3C888.7 366.3 924.3 337.7 942.2 323.3L960 309L960 264L942.2 284.7C924.3 305.3 888.7 346.7 853.2 348.3C817.7 350 782.3 312 746.8 302C711.3 292 675.7 310 640 328C604.3 346 568.7 364 533.2 356.8C497.7 349.7 462.3 317.3 426.8 314.7C391.3 312 355.7 339 320 367C284.3 395 248.7 424 213.2 424C177.7 424 142.3 395 106.8 360.7C71.3 326.3 35.7 286.7 17.8 266.8L0 247Z" fill="#548fff"></path><path d="M0 314L17.8 335.7C35.7 357.3 71.3 400.7 106.8 430.3C142.3 460 177.7 476 213.2 469.7C248.7 463.3 284.3 434.7 320 407.7C355.7 380.7 391.3 355.3 426.8 361.7C462.3 368 497.7 406 533.2 414.2C568.7 422.3 604.3 400.7 640 384.5C675.7 368.3 711.3 357.7 746.8 366.7C782.3 375.7 817.7 404.3 853.2 403.3C888.7 402.3 924.3 371.7 942.2 356.3L960 341L960 307L942.2 321.3C924.3 335.7 888.7 364.3 853.2 364.3C817.7 364.3 782.3 335.7 746.8 325.8C711.3 316 675.7 325 640 342C604.3 359 568.7 384 533.2 382.2C497.7 380.3 462.3 351.7 426.8 346.3C391.3 341 355.7 359 320 383.3C284.3 407.7 248.7 438.3 213.2 440.2C177.7 442 142.3 415 106.8 381.7C71.3 348.3 35.7 308.7 17.8 288.8L0 269Z" fill="#3079ff"></path><path d="M0 320L17.8 345.2C35.7 370.3 71.3 420.7 106.8 454.8C142.3 489 177.7 507 213.2 496.2C248.7 485.3 284.3 445.7 320 418.7C355.7 391.7 391.3 377.3 426.8 388.2C462.3 399 497.7 435 533.2 439.5C568.7 444 604.3 417 640 396.3C675.7 375.7 711.3 361.3 746.8 371.2C782.3 381 817.7 415 853.2 418.5C888.7 422 924.3 395 942.2 381.5L960 368L960 339L942.2 354.3C924.3 369.7 888.7 400.3 853.2 401.3C817.7 402.3 782.3 373.7 746.8 364.7C711.3 355.7 675.7 366.3 640 382.5C604.3 398.7 568.7 420.3 533.2 412.2C497.7 404 462.3 366 426.8 359.7C391.3 353.3 355.7 378.7 320 405.7C284.3 432.7 248.7 461.3 213.2 467.7C177.7 474 142.3 458 106.8 428.3C71.3 398.7 35.7 355.3 17.8 333.7L0 312Z" fill="#0064f9"></path><path d="M0 341L17.8 362.7C35.7 384.3 71.3 427.7 106.8 458.3C142.3 489 177.7 507 213.2 497C248.7 487 284.3 449 320 426.5C355.7 404 391.3 397 426.8 407C462.3 417 497.7 444 533.2 453C568.7 462 604.3 453 640 444C675.7 435 711.3 426 746.8 435C782.3 444 817.7 471 853.2 473.7C888.7 476.3 924.3 454.7 942.2 443.8L960 433L960 366L942.2 379.5C924.3 393 888.7 420 853.2 416.5C817.7 413 782.3 379 746.8 369.2C711.3 359.3 675.7 373.7 640 394.3C604.3 415 568.7 442 533.2 437.5C497.7 433 462.3 397 426.8 386.2C391.3 375.3 355.7 389.7 320 416.7C284.3 443.7 248.7 483.3 213.2 494.2C177.7 505 142.3 487 106.8 452.8C71.3 418.7 35.7 368.3 17.8 343.2L0 318Z" fill="#0058d9"></path><path d="M0 541L17.8 541C35.7 541 71.3 541 106.8 541C142.3 541 177.7 541 213.2 541C248.7 541 284.3 541 320 541C355.7 541 391.3 541 426.8 541C462.3 541 497.7 541 533.2 541C568.7 541 604.3 541 640 541C675.7 541 711.3 541 746.8 541C782.3 541 817.7 541 853.2 541C888.7 541 924.3 541 942.2 541L960 541L960 431L942.2 441.8C924.3 452.7 888.7 474.3 853.2 471.7C817.7 469 782.3 442 746.8 433C711.3 424 675.7 433 640 442C604.3 451 568.7 460 533.2 451C497.7 442 462.3 415 426.8 405C391.3 395 355.7 402 320 424.5C284.3 447 248.7 485 213.2 495C177.7 505 142.3 487 106.8 456.3C71.3 425.7 35.7 382.3 17.8 360.7L0 339Z" fill="#004cbb"></path></svg>