<svg id="visual" viewBox="0 0 960 140" width="960" height="140" xmlns="http://www.w3.org/2000/svg" xmlns:xlink="http://www.w3.org/1999/xlink" version="1.1"><path d="M0 107L31 107L31 105L62 105L62 32L93 32L93 70L124 70L124 90L155 90L155 24L186 24L186 74L217 74L217 84L248 84L248 69L279 69L279 84L310 84L310 36L341 36L341 104L372 104L372 91L403 91L403 37L434 37L434 78L465 78L465 85L495 85L495 79L526 79L526 13L557 13L557 54L588 54L588 63L619 63L619 14L650 14L650 71L681 71L681 46L712 46L712 85L743 85L743 54L774 54L774 82L805 82L805 50L836 50L836 22L867 22L867 99L898 99L898 17L929 17L929 61L960 61L960 43L960 0L960 0L929 0L929 0L898 0L898 0L867 0L867 0L836 0L836 0L805 0L805 0L774 0L774 0L743 0L743 0L712 0L712 0L681 0L681 0L650 0L650 0L619 0L619 0L588 0L588 0L557 0L557 0L526 0L526 0L495 0L495 0L465 0L465 0L434 0L434 0L403 0L403 0L372 0L372 0L341 0L341 0L310 0L310 0L279 0L279 0L248 0L248 0L217 0L217 0L186 0L186 0L155 0L155 0L124 0L124 0L93 0L93 0L62 0L62 0L31 0L31 0L0 0Z" fill="#181535" stroke-linecap="square" stroke-linejoin="miter"></path></svg>