<svg id="visual" viewBox="0 0 960 240" width="960" height="240" xmlns="http://www.w3.org/2000/svg" xmlns:xlink="http://www.w3.org/1999/xlink" version="1.1"><path d="M0 71L31 71L31 57L62 57L62 48L93 48L93 89L124 89L124 26L155 26L155 92L186 92L186 76L217 76L217 93L248 93L248 36L279 36L279 41L310 41L310 19L341 19L341 48L372 48L372 90L403 90L403 45L434 45L434 54L465 54L465 77L495 77L495 90L526 90L526 61L557 61L557 95L588 95L588 36L619 36L619 54L650 54L650 20L681 20L681 74L712 74L712 94L743 94L743 68L774 68L774 24L805 24L805 32L836 32L836 101L867 101L867 75L898 75L898 41L929 41L929 83L960 83L960 45L960 0L960 0L929 0L929 0L898 0L898 0L867 0L867 0L836 0L836 0L805 0L805 0L774 0L774 0L743 0L743 0L712 0L712 0L681 0L681 0L650 0L650 0L619 0L619 0L588 0L588 0L557 0L557 0L526 0L526 0L495 0L495 0L465 0L465 0L434 0L434 0L403 0L403 0L372 0L372 0L341 0L341 0L310 0L310 0L279 0L279 0L248 0L248 0L217 0L217 0L186 0L186 0L155 0L155 0L124 0L124 0L93 0L93 0L62 0L62 0L31 0L31 0L0 0Z" fill="#181535" stroke-linecap="square" stroke-linejoin="miter"></path></svg>